<?xml version="1.0" encoding="UTF-8"?>
<svg version="1.1" xmlns="http://www.w3.org/2000/svg" width="512" height="512">
<path d="M0 0 C1.01201477 0.00054382 2.02402954 0.00108765 3.06671143 0.00164795 C19.60117395 0.0423949 35.52064864 0.96613093 51.75 4.375 C52.76529785 4.58398926 53.7805957 4.79297852 54.82666016 5.00830078 C102.26191172 15.08725364 144.95477718 38.83328266 179.75 72.375 C180.30606934 72.90915527 180.86213867 73.44331055 181.43505859 73.99365234 C188.74462845 81.05152969 195.57207844 88.28915648 201.75 96.375 C202.26675293 97.04241211 202.78350586 97.70982422 203.31591797 98.39746094 C238.3182428 143.79562604 257.24118295 198.26465817 257.125 255.625 C257.12418427 257.14302216 257.12418427 257.14302216 257.12335205 258.69171143 C257.08261077 275.22387291 256.16682284 291.148992 252.75 307.375 C252.42854004 308.921875 252.42854004 308.921875 252.10058594 310.5 C241.93886882 357.83259793 218.24523694 400.62799463 184.75 435.375 C184.21584473 435.93106934 183.68168945 436.48713867 183.13134766 437.06005859 C176.07347031 444.36962845 168.83584352 451.19707844 160.75 457.375 C160.08258789 457.89175293 159.41517578 458.40850586 158.72753906 458.94091797 C113.20028824 494.04276886 58.63586172 512.91212536 1.125 512.6875 C-0.32983292 512.68476578 -0.32983292 512.68476578 -1.8140564 512.68197632 C-16.16556055 512.63658309 -30.12942918 512.1312347 -44.25 509.375 C-45.14702637 509.21402832 -46.04405273 509.05305664 -46.96826172 508.88720703 C-98.15147794 499.62565165 -143.13784854 474.22875695 -180.25 438.375 C-180.77255371 437.87436035 -181.29510742 437.3737207 -181.83349609 436.85791016 C-188.51920721 430.43498493 -194.60302862 423.72336941 -200.25 416.375 C-200.76965332 415.7046875 -201.28930664 415.034375 -201.82470703 414.34375 C-226.08061669 382.87961826 -242.80199011 346.87207126 -251.0625 308 C-251.25739014 307.08710205 -251.45228027 306.1742041 -251.65307617 305.23364258 C-254.89884698 289.07917376 -255.6250833 273.18547931 -255.5625 256.75 C-255.56034485 255.73209381 -255.5581897 254.71418762 -255.55596924 253.66543579 C-255.50629854 239.05636477 -255.25540191 224.72424147 -252.25 210.375 C-252.05132324 209.40014648 -251.85264648 208.42529297 -251.64794922 207.42089844 C-241.28913481 157.90033399 -218.3380545 113.77434897 -183.25 77.375 C-182.71584473 76.81893066 -182.18168945 76.26286133 -181.63134766 75.68994141 C-174.57347031 68.38037155 -167.33584352 61.55292156 -159.25 55.375 C-158.58258789 54.85824707 -157.91517578 54.34149414 -157.22753906 53.80908203 C-141.01556322 41.30952741 -123.80469845 31.00787354 -105.25 22.375 C-104.55567871 22.04935059 -103.86135742 21.72370117 -103.14599609 21.38818359 C-82.64489661 11.90729182 -60.57693133 5.68050474 -38.25 2.375 C-37.13189941 2.19984863 -36.01379883 2.02469727 -34.86181641 1.84423828 C-23.24356028 0.18575552 -11.72359297 -0.02374605 0 0 Z " fill="#F34235" transform="translate(255.25,-0.375)"/>
<path d="M0 0 C2.04085772 0.00112951 4.08171707 0.00049261 6.12257385 -0.00177002 C11.64054456 -0.00291406 17.15816493 0.02054524 22.67605448 0.04852581 C28.45091872 0.07359107 34.22579166 0.07588551 40.0007019 0.08062744 C50.92627194 0.09304215 61.8516812 0.12584347 72.77718055 0.1660254 C85.2197165 0.2107899 97.66226026 0.23274193 110.10485673 0.25280714 C135.69092449 0.29457736 161.2768497 0.3649002 186.86279297 0.45410156 C186.61127726 2.43176778 186.35976156 4.409434 186.10824585 6.38710022 C184.28980951 21.70046848 187.66203936 36.94202275 196.86279297 49.45410156 C197.31267578 50.08445313 197.76255859 50.71480469 198.22607422 51.36425781 C206.00767267 61.33785583 218.64741365 67.83822666 230.86279297 70.45410156 C233.30439929 70.69021988 235.75054426 70.88258303 238.19873047 71.03613281 C239.44960449 71.11710205 240.70047852 71.19807129 241.98925781 71.28149414 C242.93752441 71.33845459 243.88579102 71.39541504 244.86279297 71.45410156 C244.95577794 81.45125098 245.02670193 91.44829624 245.07004166 101.44579124 C245.09085043 106.08885429 245.11904429 110.73161984 245.16455078 115.37451172 C245.20824944 119.86141478 245.23198046 124.34803303 245.24230194 128.8351326 C245.24965045 130.54064029 245.26399972 132.24613371 245.2857132 133.95151901 C245.43550865 146.21241126 244.70662899 156.28372109 235.92919922 165.62988281 C228.92562781 171.81261976 222.55471563 174.72448375 213.28215027 174.29605103 C212.62177381 174.26782741 211.96139736 174.23960379 211.2810095 174.21052492 C209.83459633 174.14865013 208.38828249 174.08442006 206.94206429 174.01814461 C202.91147134 173.83498732 198.88002045 173.67389775 194.84843445 173.51431274 C193.55640077 173.46304902 193.55640077 173.46304902 192.2382654 173.41074967 C180.11815443 172.94466357 167.99140789 172.7193504 155.86484814 172.4922123 C146.03194294 172.30111386 136.21631507 172.02378961 126.39331055 171.53613281 C115.02250408 170.98370502 103.66576156 170.65747558 92.28076172 170.68066406 C91.36014623 170.68253881 90.43953074 170.68441355 89.49101782 170.6863451 C64.53350007 170.86664702 46.45282838 174.44479521 28.39485168 192.45809937 C21.5457789 199.57073861 15.20461492 207.2156248 9.48327827 215.26182175 C8.820483 216.19171543 8.15768772 217.12160912 7.47480774 218.0796814 C6.91615682 218.90223104 6.35750589 219.72478069 5.78192616 220.57225609 C3.2353609 223.06934296 1.37961834 223.33086102 -2.13720703 223.45410156 C-4.13720703 221.45410156 -4.13720703 221.45410156 -4.37771606 219.42929077 C-4.37105423 218.18352768 -4.37105423 218.18352768 -4.36425781 216.91259766 C-4.36410675 215.97177338 -4.36395569 215.0309491 -4.36380005 214.06161499 C-4.35347748 213.04386993 -4.34315491 212.02612488 -4.33251953 210.97753906 C-4.32968964 209.93715485 -4.32685974 208.89677063 -4.32394409 207.82485962 C-4.31272407 204.49282462 -4.28761618 201.1610557 -4.26220703 197.82910156 C-4.25217959 195.5738971 -4.24305333 193.31868844 -4.23486328 191.06347656 C-4.21277882 185.52692702 -4.17928342 179.99053329 -4.13720703 174.45410156 C-5.22984863 174.47077881 -6.32249023 174.48745605 -7.44824219 174.50463867 C-8.89924775 174.51812821 -10.35025716 174.53120881 -11.80126953 174.54394531 C-12.51935791 174.55598999 -13.23744629 174.56803467 -13.97729492 174.58044434 C-24.19792004 174.64764685 -30.6564912 170.83113376 -38.00048828 163.83300781 C-43.11482658 158.13898218 -45.24023544 151.87421153 -45.2978363 144.30834961 C-45.31290474 142.74846062 -45.31290474 142.74846062 -45.32827759 141.15705872 C-45.33410858 140.02145004 -45.33993958 138.88584137 -45.34594727 137.71582031 C-45.35573105 136.5153154 -45.36551483 135.31481049 -45.37559509 134.07792664 C-45.4055427 130.09916144 -45.42724725 126.12043213 -45.44580078 122.14160156 C-45.45074676 121.12359844 -45.45074676 121.12359844 -45.45579267 120.0850296 C-45.48658274 113.67450343 -45.51326877 107.26397228 -45.53021145 100.85339355 C-45.55207437 92.67921824 -45.59395706 84.50570333 -45.66364902 76.33179188 C-45.71108011 70.57106581 -45.73517064 64.81051663 -45.74240834 59.04960155 C-45.74733796 55.61611173 -45.76215635 52.18336701 -45.80215263 48.75009155 C-45.84121807 44.90872471 -45.84208048 41.06905865 -45.83422852 37.22753906 C-45.85422913 36.10812424 -45.87422974 34.98870941 -45.89483643 33.83537292 C-45.80085319 23.53368683 -42.25553391 15.21115746 -34.88720703 7.95410156 C-24.76714001 -0.98921348 -12.64929966 -0.09813968 0 0 Z " fill="#FEFEFE" transform="translate(135.13720703125,159.5458984375)"/>
<path d="M0 0 C10.1781338 6.80408945 18.060871 17.28284035 20.96484375 29.2734375 C22.87807101 45.02860066 19.74425027 58.58229803 9.96484375 71.2734375 C2.27430332 79.91076153 -9.23258687 85.57279884 -20.734375 86.48828125 C-35.85511644 86.98242313 -48.13517097 82.3914683 -59.22265625 72.17578125 C-68.78976316 62.13444275 -71.62515968 51.07556071 -71.43530273 37.54980469 C-70.99326938 24.49319834 -66.44255202 14.10307957 -56.84765625 4.9609375 C-40.01763894 -9.04969229 -18.82360188 -10.70789193 0 0 Z " fill="#FEFDFD" transform="translate(401.03515625,135.7265625)"/>
<path d="M0 0 C5.42327448 2.7175708 8.91073859 7.70877826 10.78515625 13.33203125 C11.40199692 19.50043798 9.95746795 24.11338268 6.78515625 29.33203125 C2.5928247 34.1956069 -2.33264496 36.01178694 -8.58984375 36.70703125 C-14.46181597 36.09958585 -19.12475659 33.88859926 -23.08984375 29.45703125 C-26.66534168 24.19894606 -27.87181808 19.68278308 -27.21484375 13.33203125 C-25.51664296 7.79675654 -22.46646506 3.67513686 -17.69140625 0.40234375 C-12.13027602 -2.00104692 -5.74505834 -1.73263664 0 0 Z " fill="#F34538" transform="translate(243.21484375,229.66796875)"/>
<path d="M0 0 C4.60620552 3.55061676 8.41885309 7.71550651 9.37109375 13.609375 C9.54847697 20.1621198 8.2545802 24.29070042 4 29.3125 C-0.93258919 33.88416803 -4.94302417 35.79393268 -11.62109375 35.62890625 C-16.88569996 34.92868769 -20.75655111 32.62139357 -24.375 28.8125 C-28.37103486 22.66475407 -28.89991751 17.62432974 -28 10.3125 C-26.18993608 5.30250165 -23.02315688 1.32494451 -18.15234375 -1.0625 C-12.26838174 -2.77109151 -5.50120147 -2.90472923 0 0 Z " fill="#F34538" transform="translate(322,230.6875)"/>
<path d="M0 0 C4.56902106 2.56206789 8.02936547 5.99205788 9.52734375 11.109375 C10.52015242 17.9739378 10.2613953 23.77706361 6.09375 29.48828125 C2.09668672 33.62489288 -2.95337544 35.86238669 -8.66015625 36.421875 C-14.7004815 35.92676637 -19.35909344 33.73141543 -23.34765625 29.109375 C-27.21891653 23.64406636 -28.32948296 19.7772444 -27.47265625 13.109375 C-25.87932913 7.55289877 -22.70759119 3.43262501 -17.9453125 0.18359375 C-12.24966269 -2.29081967 -5.79884078 -2.08868199 0 0 Z " fill="#F34538" transform="translate(166.47265625,229.890625)"/>
</svg>
